<?xml version="1.0" encoding="UTF-8" standalone="no"?>
<svg width="96px" height="48px" viewBox="0 0 96 48" version="1.1" xmlns="http://www.w3.org/2000/svg" xmlns:xlink="http://www.w3.org/1999/xlink">
    <!-- Generator: Sketch 45.2 (43514) - http://www.bohemiancoding.com/sketch -->
    <title>noun_1174149_cc</title>
    <desc>Created with Sketch.</desc>
    <defs></defs>
    <g id="Page-1" stroke="none" stroke-width="1" fill="none" fill-rule="evenodd">
        <g id="Artboard" transform="translate(-317.000000, -413.000000)" fill-rule="nonzero" fill="#000000">
            <g id="noun_1174149_cc" transform="translate(317.000000, 413.000000)">
                <g id="Group">
                    <path d="M82.3,15.4 C80,7 72.3,0.8 63.2,0.8 C56.8,0.8 51.1,3.9 47.5,8.6 C50.8,10.8 53.4,13.9 55,17.5 C62,20.1 66.8,26.7 66.8,34.4 C66.8,39.4 64.8,43.9 61.5,47.1 L79.6,47.1 C88.4,47.1 95.6,39.9 95.6,31.1 C95.5,23.3 89.8,16.7 82.3,15.4 Z" id="Shape"></path>
                    <path d="M50.9,21.9 C49.1,15.2 43,10.3 35.7,10.3 C29.4,10.3 23.9,14 21.4,19.4 C21.1,19.4 20.8,19.4 20.5,19.4 C15.3,19.4 11.1,23.5 10.8,28.6 C10.5,28.6 10.2,28.6 9.9,28.6 C4.7,28.6 0.6,32.8 0.6,37.9 C0.6,43.1 4.8,47.2 9.9,47.2 L48.8,47.2 C55.8,47.2 61.5,41.5 61.5,34.5 C61.4,28.2 56.9,22.9 50.9,21.9 Z" id="Shape"></path>
                </g>
            </g>
        </g>
    </g>
</svg>