<?xml version="1.0" encoding="UTF-8" standalone="no"?>
<svg width="76px" height="90px" viewBox="0 0 76 90" version="1.1" xmlns="http://www.w3.org/2000/svg" xmlns:xlink="http://www.w3.org/1999/xlink">
    <!-- Generator: Sketch 45.2 (43514) - http://www.bohemiancoding.com/sketch -->
    <title>noun_1174147_cc</title>
    <desc>Created with Sketch.</desc>
    <defs></defs>
    <g id="Page-1" stroke="none" stroke-width="1" fill="none" fill-rule="evenodd">
        <g id="Artboard" transform="translate(-607.000000, -394.000000)" fill-rule="nonzero" fill="#000000">
            <g id="noun_1174147_cc" transform="translate(607.000000, 394.000000)">
                <g id="Group">
                    <path d="M40.8,46.1 C40,45.8 39.1,45.6 38,45.6 C36.9,45.6 35.9,45.8 35.2,46.1 L35.2,78.8 C35.2,78.8 35.2,78.8 35.2,78.8 C35.2,81.8 32.7,84.3 29.7,84.3 C26.7,84.3 24.2,81.8 24.2,78.8 C24.2,77.2 22.9,76 21.4,76 C19.8,76 18.6,77.3 18.6,78.8 C18.6,84.9 23.6,89.9 29.7,89.9 C35.8,89.9 40.8,84.9 40.8,78.8 C40.8,78.8 40.8,78.8 40.8,78.8 L40.8,46.1 L40.8,46.1 Z" id="Shape"></path>
                    <path d="M40.8,7.5 L40.8,2.9 C40.8,1.3 39.5,0.1 38,0.1 C36.4,0.1 35.2,1.4 35.2,2.9 L35.2,7.5 C16,9.1 0.6,26.3 0.4,47.3 C0.4,48.7 1.5,49.8 2.8,49.8 C4.2,49.8 5.3,48.8 5.4,47.5 C5.6,44.2 9.7,41.4 14.6,41.4 C19.6,41.4 23.8,44.3 23.8,47.7 C23.8,49.1 24.9,50.2 26.3,50.2 C27.7,50.2 28.8,49.1 28.8,47.7 C28.8,44.3 33,41.4 38,41.4 C43,41.4 47.2,44.3 47.2,47.7 C47.2,49.1 48.3,50.2 49.7,50.2 C51.1,50.2 52.2,49.1 52.2,47.7 C52.2,44.3 56.4,41.4 61.4,41.4 C66.2,41.4 70.4,44.1 70.6,47.5 C70.7,48.9 71.8,49.9 73.2,49.8 C74.6,49.7 75.6,48.6 75.6,47.3 C75.4,26.3 60.1,9 40.8,7.5 Z M61.4,36.4 C56.5,36.4 52.3,38.4 49.7,41.3 C47.1,38.3 42.8,36.4 38,36.4 C33.1,36.4 28.8,38.4 26.3,41.3 C23.7,38.3 19.4,36.4 14.6,36.4 C11.6,36.4 8.9,37.1 6.6,38.4 C10.4,23.5 23.1,12.4 38,12.4 C52.9,12.4 65.6,23.4 69.4,38.4 C67.2,37.1 64.4,36.4 61.4,36.4 Z" id="Shape"></path>
                </g>
            </g>
        </g>
    </g>
</svg>