<?xml version="1.0" encoding="UTF-8" standalone="no"?>
<svg width="88px" height="90px" viewBox="0 0 88 90" version="1.1" xmlns="http://www.w3.org/2000/svg" xmlns:xlink="http://www.w3.org/1999/xlink">
    <!-- Generator: Sketch 45.2 (43514) - http://www.bohemiancoding.com/sketch -->
    <title>noun_1174144_cc</title>
    <desc>Created with Sketch.</desc>
    <defs></defs>
    <g id="Page-1" stroke="none" stroke-width="1" fill="none" fill-rule="evenodd">
        <g id="Artboard" transform="translate(-987.000000, -394.000000)" fill-rule="nonzero" fill="#1D1D1B">
            <g id="noun_1174144_cc" transform="translate(987.000000, 394.000000)">
                <g id="Group">
                    <path d="M73,16.1 C69.6,6.6 60.5,0 50.3,0 C41.6,0 33.6,4.7 29.4,12.2 C22,12.4 15.9,17.6 14.4,24.6 C6.5,25.2 0.2,31.9 0.2,39.9 C0.2,48.4 7.1,55.3 15.6,55.3 L67.9,55.3 C78.9,55.3 87.9,46.3 87.9,35.3 C87.8,26.2 81.7,18.4 73,16.1 Z M67.9,49.7 L15.6,49.7 C10.2,49.7 5.9,45.3 5.9,40 C5.9,34.7 10.3,30.3 15.6,30.3 C15.9,30.3 16.3,30.3 16.6,30.4 C17.4,30.5 18.1,30.2 18.7,29.7 C19.3,29.2 19.6,28.5 19.7,27.7 C20,22.2 24.4,18 29.9,18 C30.2,18 30.6,18 30.9,18.1 C32.1,18.2 33.2,17.6 33.7,16.5 C36.7,10 43.3,5.9 50.4,5.9 C58.7,5.9 66,11.5 68.2,19.5 C68.5,20.6 69.4,21.3 70.4,21.5 C77.3,22.7 82.3,28.6 82.3,35.6 C82.2,43.3 75.8,49.7 67.9,49.7 Z" id="Shape"></path>
                    <path d="M71.1,63.2 C70.7,62.5 69.8,62.2 69.1,62.7 L66,64.5 L66,60.9 C66,60.1 65.3,59.4 64.5,59.4 C63.7,59.4 63,60.1 63,60.9 L63,64.5 L59.9,62.7 C59.2,62.3 58.3,62.5 57.9,63.2 C57.5,63.9 57.7,64.8 58.4,65.2 L61.5,67 L58.4,68.8 C58.1,69 57.8,69.3 57.7,69.7 C57.6,70.1 57.6,70.5 57.8,70.8 C58,71.1 58.3,71.4 58.7,71.5 C59.1,71.6 59.5,71.5 59.8,71.4 L62.9,69.6 L62.9,73.2 C62.9,74 63.6,74.7 64.4,74.7 C65.2,74.7 65.9,74 65.9,73.2 L65.9,69.6 L69,71.4 C69.3,71.6 69.8,71.7 70.1,71.5 C70.5,71.4 70.8,71.1 71,70.8 C71.4,70.1 71.2,69.2 70.5,68.8 L67.4,67 L70.5,65.2 C71.3,64.8 71.5,63.9 71.1,63.2 Z" id="Shape"></path>
                    <path d="M49.9,71.6 C50.3,71.5 50.6,71.2 50.8,70.9 C51,70.6 51.1,70.2 50.9,69.8 C50.8,69.4 50.6,69.1 50.2,68.9 L47.1,67.1 L50.2,65.3 C50.9,64.9 51.2,64 50.7,63.3 C50.3,62.6 49.4,62.3 48.7,62.8 L45.6,64.6 L45.6,61 C45.6,60.2 44.9,59.5 44.1,59.5 C43.3,59.5 42.6,60.2 42.6,61 L42.6,64.6 L39.5,62.8 C38.8,62.4 37.9,62.6 37.5,63.3 C37.3,63.6 37.2,64 37.4,64.4 C37.5,64.8 37.7,65.1 38.1,65.3 L41.2,67.1 L38.1,68.9 C37.4,69.3 37.1,70.2 37.6,70.9 C37.8,71.2 38.1,71.5 38.5,71.6 C38.9,71.7 39.3,71.6 39.6,71.5 L42.7,69.7 L42.7,73.3 C42.7,74.1 43.4,74.8 44.2,74.8 C45,74.8 45.7,74.1 45.7,73.3 L45.7,69.7 L48.8,71.5 C49.2,71.6 49.6,71.7 49.9,71.6 Z" id="Shape"></path>
                    <path d="M61.9,79.7 C62,79.3 61.9,78.9 61.8,78.6 C61.6,78.3 61.3,78 60.9,77.9 C60.5,77.8 60.1,77.8 59.8,78 L56.7,79.8 L56.7,76.2 C56.7,75.4 56,74.7 55.2,74.7 C54.4,74.7 53.7,75.4 53.7,76.2 L53.7,79.8 L50.6,78 C50.3,77.8 49.9,77.8 49.5,77.9 C49.1,78 48.8,78.3 48.6,78.6 C48.2,79.3 48.4,80.2 49.1,80.6 L52.2,82.4 L49.1,84.2 C48.4,84.6 48.1,85.5 48.6,86.2 C49,86.9 49.9,87.2 50.6,86.7 L53.7,84.9 L53.7,88.5 C53.7,89.3 54.4,90 55.2,90 C56,90 56.7,89.3 56.7,88.5 L56.7,84.9 L59.8,86.7 C60.5,87.1 61.4,86.9 61.8,86.2 C62.2,85.5 62,84.6 61.3,84.2 L58.2,82.4 L61.3,80.6 C61.5,80.4 61.8,80.1 61.9,79.7 Z" id="Shape"></path>
                    <path d="M40.2,79.7 C40.3,79.3 40.2,78.9 40.1,78.6 C39.9,78.3 39.6,78 39.2,77.9 C38.8,77.8 38.4,77.8 38.1,78 L35,79.8 L35,76.2 C35,75.4 34.3,74.7 33.5,74.7 C32.7,74.7 32,75.4 32,76.2 L32,79.8 L28.9,78 C28.2,77.6 27.3,77.8 26.9,78.5 C26.5,79.2 26.7,80.1 27.4,80.5 L30.5,82.3 L27.4,84.1 C27.1,84.3 26.8,84.6 26.7,85 C26.6,85.4 26.6,85.8 26.8,86.1 C27,86.4 27.3,86.7 27.7,86.8 C28.1,86.9 28.5,86.9 28.8,86.7 L31.9,84.9 L31.9,88.5 C31.9,89.3 32.6,90 33.4,90 C34.2,90 34.9,89.3 34.9,88.5 L34.9,84.9 L38,86.7 C38.7,87.1 39.6,86.9 40,86.2 C40.4,85.5 40.2,84.6 39.5,84.2 L36.4,82.4 L39.5,80.6 C39.9,80.4 40.1,80.1 40.2,79.7 Z" id="Shape"></path>
                    <path d="M29.7,71.6 C30.1,71.5 30.4,71.2 30.6,70.9 C30.8,70.6 30.9,70.2 30.8,69.8 C30.7,69.4 30.5,69.1 30.1,68.9 L27,67.1 L30.1,65.3 C30.8,64.9 31.1,64 30.6,63.3 C30.2,62.6 29.3,62.3 28.6,62.8 L25.5,64.6 L25.5,61 C25.5,60.2 24.8,59.5 24,59.5 C23.2,59.5 22.5,60.2 22.5,61 L22.5,64.6 L19.4,62.8 C18.7,62.4 17.8,62.6 17.4,63.3 C17,64 17.2,64.9 17.9,65.3 L21,67.1 L17.9,68.9 C17.2,69.3 16.9,70.2 17.4,70.9 C17.8,71.6 18.7,71.9 19.4,71.4 L22.5,69.6 L22.5,73.2 C22.5,74 23.2,74.7 24,74.7 C24.8,74.7 25.5,74 25.5,73.2 L25.5,69.6 L28.6,71.4 C28.9,71.6 29.3,71.7 29.7,71.6 Z" id="Shape"></path>
                </g>
            </g>
        </g>
    </g>
</svg>