<?xml version="1.0" encoding="UTF-8" standalone="no"?>
<svg width="96px" height="96px" viewBox="0 0 96 96" version="1.1" xmlns="http://www.w3.org/2000/svg" xmlns:xlink="http://www.w3.org/1999/xlink">
    <!-- Generator: Sketch 45.2 (43514) - http://www.bohemiancoding.com/sketch -->
    <title>noun_1174146_cc</title>
    <desc>Created with Sketch.</desc>
    <defs></defs>
    <g id="Page-1" stroke="none" stroke-width="1" fill="none" fill-rule="evenodd">
        <g id="Artboard" transform="translate(-728.000000, -385.000000)" fill-rule="nonzero" fill="#000000">
            <g id="noun_1174146_cc" transform="translate(728.000000, 385.000000)">
                <g id="Group">
                    <path d="M48,22.8 C34.1,22.8 22.8,34.1 22.8,48 C22.8,61.9 34.1,73.2 48,73.2 C61.9,73.2 73.2,61.9 73.2,48 C73.2,34.1 61.9,22.8 48,22.8 Z M48,66.7 C37.7,66.7 29.3,58.3 29.3,48 C29.3,37.7 37.7,29.3 48,29.3 C58.3,29.3 66.7,37.7 66.7,48 C66.7,58.3 58.3,66.7 48,66.7 Z" id="Shape"></path>
                    <path d="M48,17.6 C49.8,17.6 51.3,16.1 51.3,14.3 L51.3,3.7 C51.3,1.9 49.8,0.4 48,0.4 C46.2,0.4 44.7,1.9 44.7,3.7 L44.7,14.3 C44.7,16.2 46.2,17.6 48,17.6 Z" id="Shape"></path>
                    <path d="M21.9,26.5 C22.5,27.1 23.4,27.5 24.2,27.5 C25,27.5 25.9,27.2 26.5,26.5 C27.8,25.2 27.8,23.2 26.5,21.9 L19,14.4 C17.7,13.1 15.7,13.1 14.4,14.4 C13.1,15.7 13.1,17.7 14.4,19 L21.9,26.5 Z" id="Shape"></path>
                    <path d="M17.6,48 C17.6,46.2 16.1,44.7 14.3,44.7 L3.7,44.7 C1.9,44.7 0.4,46.2 0.4,48 C0.4,49.8 1.9,51.3 3.7,51.3 L14.3,51.3 C16.2,51.3 17.6,49.8 17.6,48 Z" id="Shape"></path>
                    <path d="M21.9,69.5 L14.4,77 C13.1,78.3 13.1,80.3 14.4,81.6 C15,82.2 15.9,82.6 16.7,82.6 C17.5,82.6 18.4,82.3 19,81.6 L26.5,74.1 C27.8,72.8 27.8,70.8 26.5,69.5 C25.3,68.2 23.2,68.2 21.9,69.5 Z" id="Shape"></path>
                    <path d="M48,78.4 C46.2,78.4 44.7,79.9 44.7,81.7 L44.7,92.3 C44.7,94.1 46.2,95.6 48,95.6 C49.8,95.6 51.3,94.1 51.3,92.3 L51.3,81.7 C51.3,79.8 49.8,78.4 48,78.4 Z" id="Shape"></path>
                    <path d="M74.1,69.5 C72.8,68.2 70.8,68.2 69.5,69.5 C68.2,70.8 68.2,72.8 69.5,74.1 L77,81.6 C77.6,82.2 78.5,82.6 79.3,82.6 C80.1,82.6 81,82.3 81.6,81.6 C82.9,80.3 82.9,78.3 81.6,77 L74.1,69.5 Z" id="Shape"></path>
                    <path d="M92.2,44.7 L81.6,44.7 C79.8,44.7 78.3,46.2 78.3,48 C78.3,49.8 79.8,51.3 81.6,51.3 L92.2,51.3 C94,51.3 95.5,49.8 95.5,48 C95.5,46.2 94,44.7 92.2,44.7 Z" id="Shape"></path>
                    <path d="M71.8,27.5 C72.6,27.5 73.5,27.2 74.1,26.5 L81.6,19 C82.9,17.7 82.9,15.7 81.6,14.4 C80.3,13.1 78.3,13.1 77,14.4 L69.5,21.9 C68.2,23.2 68.2,25.2 69.5,26.5 C70.1,27.2 70.9,27.5 71.8,27.5 Z" id="Shape"></path>
                </g>
            </g>
        </g>
    </g>
</svg>