<?xml version="1.0" encoding="UTF-8" standalone="no"?>
<svg width="96px" height="86px" viewBox="0 0 96 86" version="1.1" xmlns="http://www.w3.org/2000/svg" xmlns:xlink="http://www.w3.org/1999/xlink">
    <!-- Generator: Sketch 45.2 (43514) - http://www.bohemiancoding.com/sketch -->
    <title>noun_1174141_cc</title>
    <desc>Created with Sketch.</desc>
    <defs></defs>
    <g id="Page-1" stroke="none" stroke-width="1" fill="none" fill-rule="evenodd">
        <g id="Artboard" transform="translate(-483.000000, -496.000000)" fill-rule="nonzero" fill="#000000">
            <g id="noun_1174141_cc" transform="translate(483.000000, 496.000000)">
                <g id="Group">
                    <path d="M33.7,12.5 C35,12.5 36,11.5 36,10.2 L36,2.8 C36,1.5 35,0.5 33.7,0.5 C32.4,0.5 31.4,1.5 31.4,2.8 L31.4,10.2 C31.5,11.5 32.5,12.5 33.7,12.5 Z" id="Shape"></path>
                    <path d="M15.5,18.8 C15.9,19.2 16.5,19.5 17.1,19.5 C17.7,19.5 18.3,19.3 18.7,18.8 C19.6,17.9 19.6,16.5 18.7,15.6 L13.4,10.3 C12.5,9.4 11.1,9.4 10.2,10.3 C9.3,11.2 9.3,12.6 10.2,13.5 L15.5,18.8 Z" id="Shape"></path>
                    <path d="M12.5,33.8 C12.5,32.5 11.5,31.5 10.2,31.5 L2.8,31.5 C1.5,31.5 0.5,32.5 0.5,33.8 C0.5,35.1 1.5,36.1 2.8,36.1 L10.2,36.1 C11.5,36.1 12.5,35 12.5,33.8 Z" id="Shape"></path>
                    <path d="M15.5,48.8 L10.2,54.1 C9.3,55 9.3,56.4 10.2,57.3 C10.6,57.7 11.2,58 11.8,58 C12.4,58 13,57.8 13.4,57.3 L18.7,52 C19.6,51.1 19.6,49.7 18.7,48.8 C17.8,47.9 16.4,47.9 15.5,48.8 Z" id="Shape"></path>
                    <path d="M50.4,19.4 C51,19.4 51.6,19.2 52,18.7 L57.3,13.4 C58.2,12.5 58.2,11.1 57.3,10.2 C56.4,9.3 55,9.3 54.1,10.2 L48.8,15.5 C47.9,16.4 47.9,17.8 48.8,18.7 C49.2,19.2 49.8,19.4 50.4,19.4 Z" id="Shape"></path>
                    <path d="M83.5,33.6 C80.8,25.9 73.4,20.6 65.2,20.6 C59.4,20.6 53.9,23.3 50.3,27.6 C47.8,20.9 41.4,16.1 33.8,16.1 C24.1,16.1 16.2,24 16.2,33.7 C16.2,40.3 19.9,46.1 25.3,49.1 C24.9,50.3 24.7,51.5 24.7,52.8 C24.7,59.7 30.3,65.2 37.1,65.2 L79.4,65.2 C88.3,65.2 95.5,58 95.5,49.1 C95.5,41.8 90.5,35.4 83.5,33.6 Z M27.4,45.2 C23.4,43 20.7,38.7 20.7,33.8 C20.7,26.6 26.6,20.7 33.8,20.7 C39.9,20.7 45.1,25 46.5,30.7 C41.4,31.6 37.3,35.5 36.2,40.5 C32.6,40.8 29.5,42.5 27.4,45.2 Z M79.4,60.8 L37.1,60.8 C32.8,60.8 29.2,57.3 29.2,52.9 C29.2,48.6 32.7,45 37.1,45 C37.4,45 37.6,45 37.9,45 C38.5,45.1 39.1,44.9 39.6,44.5 C40.1,44.1 40.4,43.5 40.4,42.9 C40.6,38.5 44.2,35 48.6,35 C48.9,35 49.1,35 49.4,35 C50.4,35.1 51.3,34.6 51.7,33.7 C54.1,28.5 59.4,25.1 65.2,25.1 C71.9,25.1 77.8,29.6 79.6,36.1 C79.8,37 80.5,37.6 81.4,37.7 C87,38.7 91,43.5 91,49.1 C90.9,55.6 85.7,60.8 79.4,60.8 Z" id="Shape"></path>
                    <path d="M43,69.1 C41.8,68.6 40.5,69.2 40,70.4 L35.2,82.4 C34.7,83.6 35.3,84.9 36.5,85.4 C36.8,85.5 37.1,85.6 37.4,85.6 C38.3,85.6 39.2,85.1 39.5,84.2 L44.3,72.2 C44.7,70.9 44.2,69.6 43,69.1 Z" id="Shape"></path>
                    <path d="M55,69.1 C53.8,68.6 52.5,69.2 52,70.4 L47.2,82.4 C46.7,83.6 47.3,84.9 48.5,85.4 C48.8,85.5 49.1,85.6 49.4,85.6 C50.3,85.6 51.2,85.1 51.5,84.2 L56.3,72.2 C56.8,70.9 56.2,69.6 55,69.1 Z" id="Shape"></path>
                    <path d="M67.1,69.1 C65.9,68.6 64.6,69.2 64.1,70.4 L59.3,82.4 C58.8,83.6 59.4,84.9 60.6,85.4 C60.9,85.5 61.2,85.6 61.5,85.6 C62.4,85.6 63.3,85.1 63.6,84.2 L68.4,72.2 C68.8,70.9 68.3,69.6 67.1,69.1 Z" id="Shape"></path>
                    <path d="M79.1,69.1 C77.9,68.6 76.6,69.2 76.1,70.4 L71.3,82.4 C70.8,83.6 71.4,84.9 72.6,85.4 C72.9,85.5 73.2,85.6 73.5,85.6 C74.4,85.6 75.3,85.1 75.6,84.2 L80.4,72.2 C80.9,70.9 80.3,69.6 79.1,69.1 Z" id="Shape"></path>
                </g>
            </g>
        </g>
    </g>
</svg>