<?xml version="1.0" encoding="UTF-8" standalone="no"?>
<svg width="96px" height="52px" viewBox="0 0 96 52" version="1.1" xmlns="http://www.w3.org/2000/svg" xmlns:xlink="http://www.w3.org/1999/xlink">
    <!-- Generator: Sketch 45.2 (43514) - http://www.bohemiancoding.com/sketch -->
    <title>noun_1174142_cc</title>
    <desc>Created with Sketch.</desc>
    <defs></defs>
    <g id="Page-1" stroke="none" stroke-width="1" fill="none" fill-rule="evenodd">
        <g id="Artboard" transform="translate(-342.000000, -507.000000)" fill-rule="nonzero" fill="#000000">
            <g id="noun_1174142_cc" transform="translate(342.000000, 507.000000)">
                <path d="M81.5,15.2 C78.4,6.2 69.8,0 60.2,0 C52,0 44.3,4.6 40.4,11.7 C40.4,11.7 40.4,11.7 40.3,11.7 C39.2,11.5 38.1,11.4 37,11.4 C30.7,11.4 24.9,14.8 21.7,20.2 C16.4,20.4 12,24.1 10.8,29.1 C5,29.7 0.5,34.5 0.5,40.5 C0.5,46.8 5.6,51.9 11.9,51.9 L76.8,51.9 C87.1,51.9 95.5,43.5 95.5,33.2 C95.5,24.7 89.7,17.3 81.5,15.2 Z M76.8,47.2 L60.4,47.2 C62.8,44.6 64.3,41.1 64.3,37.2 C64.3,30.5 59.9,24.8 53.5,23 C51.9,18.7 48.8,15.3 44.9,13.3 C48.1,8 53.9,4.7 60.1,4.7 C68.1,4.7 75.2,10.1 77.3,17.8 C77.5,18.7 78.3,19.4 79.2,19.5 C85.9,20.7 90.7,26.4 90.7,33.2 C90.8,41 84.5,47.2 76.8,47.2 Z M11.9,33.9 C12.1,33.9 12.4,33.9 12.6,33.9 C13.3,34 13.9,33.8 14.4,33.3 C14.9,32.9 15.2,32.3 15.2,31.6 C15.4,27.8 18.5,24.9 22.2,24.9 C22.4,24.9 22.7,24.9 22.9,24.9 C23.9,25 24.8,24.5 25.3,23.5 C27.4,19 32,16 37,16 C42.8,16 47.9,19.9 49.5,25.5 C49.7,26.4 50.5,27.1 51.4,27.2 C56.2,28 59.7,32.2 59.7,37 C59.7,42.5 55.2,47 49.7,47 L12,47 C8.3,47 5.3,44 5.3,40.3 C5.2,36.9 8.2,33.9 11.9,33.9 Z" id="Shape"></path>
            </g>
        </g>
    </g>
</svg>