<?xml version="1.0" encoding="UTF-8" standalone="no"?>
<svg width="96px" height="73px" viewBox="0 0 96 73" version="1.1" xmlns="http://www.w3.org/2000/svg" xmlns:xlink="http://www.w3.org/1999/xlink">
    <!-- Generator: Sketch 45.2 (43514) - http://www.bohemiancoding.com/sketch -->
    <title>noun_1174148_cc</title>
    <desc>Created with Sketch.</desc>
    <defs></defs>
    <g id="Page-1" stroke="none" stroke-width="1" fill="none" fill-rule="evenodd">
        <g id="Artboard" transform="translate(-456.000000, -408.000000)" fill-rule="nonzero" fill="#000000">
            <g id="noun_1174148_cc" transform="translate(456.000000, 408.000000)">
                <g id="Group">
                    <path d="M95.5,24.9 C95.5,16.9 89,10.4 81,10.4 C73,10.4 66.5,16.9 66.5,24.9 C66.5,26.8 68.1,28.4 70,28.4 C71.9,28.4 73.5,26.8 73.5,24.9 C73.5,20.8 76.8,17.5 80.9,17.5 C85,17.5 88.3,20.8 88.3,24.9 C88.3,29 85,32.3 80.9,32.3 L10.9,32.3 C9,32.3 7.4,33.9 7.4,35.8 C7.4,37.7 9,39.3 10.9,39.3 L69.5,39.3 C73.6,39.3 76.9,42.6 76.9,46.7 C76.9,50.8 73.6,54.1 69.5,54.1 C65.4,54.1 62.1,50.8 62.1,46.7 C62.1,44.8 60.5,43.2 58.6,43.2 C56.7,43.2 55.1,44.8 55.1,46.7 C55.1,54.7 61.6,61.2 69.6,61.2 C77.6,61.2 84.1,54.7 84.1,46.7 C84.1,44 83.3,41.4 82,39.2 C89.5,38.9 95.5,32.6 95.5,24.9 Z" id="Shape"></path>
                    <path d="M38.3,44.7 L18,44.7 C16.1,44.7 14.5,46.3 14.5,48.2 C14.5,50.1 16.1,51.7 18,51.7 L38.3,51.7 C42,51.7 45,54.7 45,58.4 C45,62.1 42,65.1 38.3,65.1 C34.6,65.1 31.6,62.1 31.6,58.4 C31.6,56.5 30,54.9 28.1,54.9 C26.2,54.9 24.6,56.5 24.6,58.4 C24.6,65.9 30.7,72.1 38.3,72.1 C45.8,72.1 52,66 52,58.4 C52,50.8 45.9,44.7 38.3,44.7 Z" id="Shape"></path>
                    <path d="M63.4,13.5 C63.4,6 57.3,0 49.9,0 C42.4,0 36.4,6.1 36.4,13.5 C36.4,15.4 38,17 39.9,17 C41.8,17 43.4,15.4 43.4,13.5 C43.4,9.9 46.3,7 49.9,7 C53.5,7 56.4,9.9 56.4,13.5 C56.4,17.1 53.5,20 49.9,20 L4,20 C2.1,20 0.5,21.6 0.5,23.5 C0.5,25.4 2.1,27 4,27 L49.9,27 C57.3,27 63.4,21 63.4,13.5 Z" id="Shape"></path>
                </g>
            </g>
        </g>
    </g>
</svg>