<?xml version="1.0" encoding="UTF-8" standalone="no"?>
<svg width="86px" height="90px" viewBox="0 0 86 90" version="1.1" xmlns="http://www.w3.org/2000/svg" xmlns:xlink="http://www.w3.org/1999/xlink">
    <!-- Generator: Sketch 45.2 (43514) - http://www.bohemiancoding.com/sketch -->
    <title>noun_1174145_cc</title>
    <desc>Created with Sketch.</desc>
    <defs></defs>
    <g id="Page-1" stroke="none" stroke-width="1" fill="none" fill-rule="evenodd">
        <g id="Artboard" transform="translate(-852.000000, -394.000000)" fill-rule="nonzero" fill="#000000">
            <g id="noun_1174145_cc" transform="translate(852.000000, 394.000000)">
                <g id="Group">
                    <path d="M71.2,15.6 C67.9,6.3 59.1,0 49.2,0 C40.8,0 33,4.6 28.9,11.8 C21.8,12 15.8,17 14.3,23.8 C6.6,24.4 0.5,30.8 0.5,38.7 C0.5,46.9 7.2,53.6 15.4,53.6 L66.2,53.6 C76.9,53.6 85.6,44.9 85.6,34.2 C85.5,25.4 79.6,17.8 71.2,15.6 Z M66.2,48.2 L15.4,48.2 C10.2,48.2 5.9,44 5.9,38.7 C5.9,33.5 10.1,29.2 15.4,29.2 C15.7,29.2 16,29.2 16.4,29.2 C17.1,29.3 17.9,29 18.5,28.5 C19.1,28 19.4,27.3 19.4,26.6 C19.6,21.3 24,17.2 29.3,17.2 C29.6,17.2 29.9,17.2 30.3,17.2 C31.4,17.3 32.5,16.7 33,15.6 C35.9,9.3 42.3,5.3 49.2,5.3 C57.2,5.3 64.3,10.7 66.4,18.5 C66.7,19.5 67.5,20.3 68.6,20.5 C75.3,21.7 80.1,27.4 80.1,34.2 C80.1,42 73.8,48.2 66.2,48.2 Z" id="Shape"></path>
                    <path d="M61.1,68.2 L62.9,63.8 C63.5,62.3 63.4,60.6 62.5,59.2 C61.6,57.8 60.1,57 58.5,57 L51.2,57 C48.8,57 46.8,58.7 46.4,61.1 L44.6,72.8 C44.4,74.2 44.8,75.6 45.7,76.7 C46.5,77.6 47.6,78.2 48.9,78.4 L48.4,86.2 C48.3,87.7 49.2,89.1 50.7,89.7 C51.1,89.8 51.5,89.9 51.9,89.9 C53,89.9 54,89.4 54.7,88.5 L64.1,75.9 C65.2,74.4 65.4,72.4 64.6,70.8 C63.9,69.4 62.6,68.4 61.1,68.2 Z M60.9,73.5 L52.7,84.5 L53.2,76.6 C53.2,76 53,75.5 52.6,75.1 C52.2,74.7 51.7,74.5 51.1,74.5 L49.4,74.5 C49.1,74.5 48.9,74.3 48.8,74.2 C48.7,74.1 48.6,73.9 48.6,73.6 L50.4,61.9 C50.5,61.5 50.8,61.3 51.1,61.3 L58.4,61.3 C58.7,61.3 58.9,61.5 59,61.6 C59.1,61.7 59.2,62 59.1,62.3 L56.1,69.4 C55.8,70 55.9,70.8 56.3,71.3 C56.7,71.9 57.3,72.2 58,72.2 L60.2,72.2 C60.6,72.2 60.8,72.5 60.9,72.6 C61.1,72.8 61.2,73.1 60.9,73.5 Z" id="Shape"></path>
                    <path d="M37.3,68.2 L39.1,63.8 C39.7,62.3 39.6,60.6 38.7,59.2 C37.8,57.8 36.3,57 34.7,57 L27.4,57 C25,57 23,58.7 22.6,61.1 L20.8,72.8 C20.6,74.2 21,75.6 21.9,76.7 C22.7,77.6 23.8,78.2 25.1,78.4 L24.6,86.2 C24.5,87.8 25.4,89.1 26.9,89.7 C27.3,89.8 27.7,89.9 28.1,89.9 C29.2,89.9 30.2,89.4 30.9,88.5 L40.3,75.9 C41.4,74.4 41.6,72.4 40.8,70.8 C40.1,69.4 38.8,68.4 37.3,68.2 Z M37.1,73.5 L28.9,84.5 L29.4,76.6 C29.4,76 29.2,75.5 28.8,75.1 C28.4,74.7 27.9,74.5 27.3,74.5 L25.6,74.5 C25.3,74.5 25.1,74.3 25,74.2 C24.9,74.1 24.8,73.9 24.8,73.6 L26.6,61.9 C26.7,61.5 27,61.3 27.3,61.3 L34.6,61.3 C34.9,61.3 35.1,61.5 35.2,61.6 C35.3,61.7 35.4,62 35.3,62.3 L32.3,69.4 C32,70 32.1,70.8 32.5,71.3 C32.9,71.9 33.5,72.2 34.2,72.2 L36.4,72.2 C36.8,72.2 37,72.5 37.1,72.6 C37.3,72.8 37.4,73.1 37.1,73.5 Z" id="Shape"></path>
                </g>
            </g>
        </g>
    </g>
</svg>