<?xml version="1.0" encoding="UTF-8" standalone="no"?>
<svg width="84px" height="66px" viewBox="0 0 84 66" version="1.1" xmlns="http://www.w3.org/2000/svg" xmlns:xlink="http://www.w3.org/1999/xlink">
    <!-- Generator: Sketch 45.2 (43514) - http://www.bohemiancoding.com/sketch -->
    <title>noun_985548_cc</title>
    <desc>Created with Sketch.</desc>
    <defs></defs>
    <g id="Page-1" stroke="none" stroke-width="1" fill="none" fill-rule="evenodd">
        <g id="Artboard" transform="translate(-364.000000, -689.000000)" fill-rule="nonzero" fill="#000000">
            <g id="noun_985548_cc" transform="translate(364.000000, 689.000000)">
                <g id="Group" transform="translate(-0.000000, 0.000000)">
                    <path d="M18.0656376,38.9852779 C20.4743893,38.9852779 23.0035786,38.7444028 25.6532054,38.2626524 C25.6532054,38.1422149 25.6532054,38.1422149 25.6532054,38.0217773 C25.6532054,36.8174014 25.773643,35.6130256 26.0145182,34.5290873 C16.8612618,36.0947759 8.91238123,35.7334632 4.21531545,29.3502712 C3.61312753,28.5072081 2.52918927,28.3867705 1.68612618,28.9889585 C0.843063089,29.5911464 0.722625505,30.6750846 1.32481343,31.5181477 C5.41969129,37.0582766 11.3211329,38.9852779 18.0656376,38.9852779 Z" id="Shape"></path>
                    <path d="M55.2808511,27.5437075 C55.8830391,28.6276457 56.485227,29.711584 57.0874149,30.9159598 C66.9632968,29.2298336 75.2734901,29.8320216 80.0909935,37.2991518 C80.5727438,38.1422149 81.7771197,38.38309 82.6201828,37.9013397 C83.4632458,37.4195894 83.704121,36.2152135 83.2223707,35.3721504 C76.9596163,25.7371437 66.6019841,25.3758309 55.2808511,27.5437075 Z" id="Shape"></path>
                    <path d="M48.656784,28.1458954 C47.0910954,25.6167061 45.2845317,22.7262041 43.8392806,19.3539517 L42.1531545,15.3795114 L40.4670283,19.3539517 C39.0217773,22.8466417 37.2152135,25.6167061 35.6495249,28.1458954 C34.5655867,29.9524591 33.602086,31.5181477 32.7590229,33.0838363 C32.156835,34.4086498 31.6750846,35.7334632 31.5546471,37.0582766 C31.5546471,37.4195894 31.4342095,37.6604645 31.4342095,38.0217773 C31.4342095,43.8027813 36.1312753,48.4998471 41.9122793,48.4998471 C47.6932833,48.4998471 52.3903491,43.8027813 52.3903491,38.0217773 C52.3903491,35.9743383 51.6677236,34.047337 50.5837854,32.1203357 C49.9815974,31.0363974 49.3794095,29.9524591 48.656784,28.8685209 C48.8976592,28.6276457 48.7772216,28.3867705 48.656784,28.1458954 Z M49.0180968,38.0217773 C49.0180968,41.87578 45.8867196,44.8867196 42.1531545,44.8867196 C38.2991518,44.8867196 35.2882122,41.7553424 35.2882122,38.0217773 C35.2882122,37.4195894 35.4086498,36.8174014 35.6495249,36.2152135 C36.0108377,34.8904001 36.8539008,33.5655867 37.6969638,31.8794605 C38.0582766,31.2772726 38.4195894,30.6750846 38.9013397,29.9524591 C39.9852779,28.266333 41.0692162,26.3393316 42.273592,24.1714551 C43.3575303,26.218894 44.4414686,28.0254578 45.5254068,29.8320216 C45.5254068,29.9524591 45.6458444,29.9524591 45.6458444,30.0728967 C46.3684699,31.156835 46.9706578,32.1203357 47.4524082,33.0838363 C48.4159088,34.8904001 49.0180968,36.5765263 49.0180968,38.0217773 Z" id="Shape"></path>
                    <path d="M18.547388,12.4890094 C24.6897048,12.4890094 31.5546471,10.9233208 38.4195894,9.11675707 C39.1422149,8.8758819 39.8648404,8.75544432 40.5874659,8.51456915 C41.0692162,8.39413157 41.5509665,8.27369398 42.0327169,8.1532564 C42.1531545,8.1532564 42.273592,8.1532564 42.273592,8.03281881 C42.273592,8.03281881 42.273592,8.03281881 42.3940296,8.03281881 C42.7553424,7.91238123 43.1166551,7.79194365 43.4779679,7.79194365 C44.0801558,7.67150606 44.6823437,7.43063089 45.2845317,7.31019331 C60.0983545,3.33575303 73.7078015,0.324813426 80.4523062,10.8028833 C80.9340566,11.6459463 82.1384324,11.8868215 82.9814955,11.4050712 C83.8245586,10.9233208 84.0654338,9.71894499 83.5836834,8.8758819 C75.5143653,-3.89050202 59.7370418,-0.277374495 43.9597182,3.93794095 C43.1166551,4.17881612 42.3940296,4.41969129 41.5509665,4.54012887 C41.0692162,4.66056646 40.7079035,4.78100404 40.2261531,4.90144163 C25.5327678,8.8758819 11.6824457,12.3685718 4.81750337,2.97444028 C4.21531545,2.13137719 3.13137719,2.0109396 2.2883141,2.61312753 C1.44525101,3.21531545 1.32481343,4.2992537 1.92700135,5.14231679 C5.90144163,10.5620081 11.8028833,12.4890094 18.547388,12.4890094 Z" id="Shape"></path>
                    <path d="M40.5874659,57.5326659 C25.2918927,61.6275438 10.9598202,65.6019841 3.85400269,55.9669773 C3.25181477,55.1239142 2.16787652,55.0034766 1.32481343,55.6056646 C0.481750337,56.2078525 0.361312753,57.2917907 0.963500673,58.1348538 C5.05837854,63.6749827 10.9598202,65.6019841 17.5838873,65.6019841 C24.9305799,65.6019841 33.3612108,63.31367 41.5509665,61.0253559 C57.4487277,56.6896028 72.5034257,52.594725 79.4888056,63.7954203 C79.9705559,64.6384834 81.1749317,64.8793585 82.0179948,64.3976082 C82.8610579,63.9158579 83.1019331,62.711482 82.6201828,61.8684189 C74.0691143,48.4998471 56.9669773,53.0764753 40.5874659,57.5326659 Z" id="Shape"></path>
                </g>
            </g>
        </g>
    </g>
</svg>