<?xml version="1.0" encoding="UTF-8" standalone="no"?>
<svg width="88px" height="78px" viewBox="0 0 88 78" version="1.1" xmlns="http://www.w3.org/2000/svg" xmlns:xlink="http://www.w3.org/1999/xlink">
    <!-- Generator: Sketch 45.2 (43514) - http://www.bohemiancoding.com/sketch -->
    <title>noun_1083500_cc</title>
    <desc>Created with Sketch.</desc>
    <defs></defs>
    <g id="Page-1" stroke="none" stroke-width="1" fill="none" fill-rule="evenodd">
        <g id="Artboard" transform="translate(-199.000000, -681.000000)" fill-rule="nonzero" fill="#000000">
            <g id="noun_1083500_cc" transform="translate(198.998789, 681.000000)">
                <path d="M25.3553978,0.730072618 L18.4805473,4.68463263 L28.5190458,22.0846967 L23.4085375,25.0049872 L36.8844613,28.5945109 L40.473985,15.1490068 L35.3938963,18.0388776 L25.3553978,0.730072618 Z M62.5586817,0.730072618 L52.5201832,18.1301367 L47.4400945,15.2402659 L51.0296182,28.68577 L64.505542,25.0962463 L59.3950337,22.1759558 L69.4335322,4.77589171 L62.5586817,0.730072618 Z M24.8991024,2.31189662 L34.9376009,19.7119607 L38.6488034,17.6130019 L36.0022902,27.195205 L26.4200871,24.6399509 L30.1008698,22.5409921 L20.0623713,5.11050833 L24.8991024,2.31189662 Z M62.9845574,2.31189662 L67.8517082,5.11050833 L57.8132097,22.5409921 L61.4027334,24.6399509 L51.8205302,27.195205 L49.2652761,17.6130019 L52.9764786,19.7119607 L62.9845574,2.31189662 Z M20.2448895,29.0508063 L20.2448895,34.9218069 L0.107053116,34.9218069 L0.107053116,42.8613466 L20.2448895,42.8613466 L20.2448895,48.7323473 L30.1008698,38.9067866 L20.2448895,29.0508063 Z M67.5779309,29.0508063 L57.7219506,38.9067866 L67.5779309,48.7323473 L67.5779309,42.8613466 L87.7157673,42.8613466 L87.7157673,34.9218069 L67.5779309,34.9218069 L67.5779309,29.0508063 Z M21.4008378,31.849418 L28.4277868,38.9067866 L21.4008378,45.9337356 L21.4008378,41.7053983 L1.26300143,41.7053983 L1.26300143,36.0777552 L21.4008378,36.0777552 L21.4008378,31.849418 Z M66.4219826,31.849418 L66.4219826,36.0777552 L86.559819,36.0777552 L86.559819,41.7053983 L66.4219826,41.7053983 L66.4219826,45.9337356 L59.3950337,38.9067866 L66.4219826,31.849418 Z M36.8844613,49.0973836 L23.4085375,52.7781664 L28.5190458,55.6984568 L18.4805473,73.0985209 L25.3553978,77.0530809 L35.3938963,59.6530169 L40.473985,62.5428876 L36.8844613,49.0973836 Z M50.9383592,49.1886427 L47.3488355,62.6341467 L52.4289241,59.7442759 L62.4674226,77.14434 L69.3422731,73.18978 L59.3037746,55.7897159 L64.4142829,52.7781664 L50.9383592,49.1886427 Z M36.0022902,50.6792076 L38.5575443,60.2614107 L34.9376009,58.1624519 L24.8991024,75.562516 L20.0623713,72.7639043 L30.1008698,55.3334205 L26.4200871,53.2344617 L36.0022902,50.6792076 Z M51.7292712,50.6792076 L61.341894,53.2344617 L57.6306915,55.3334205 L67.8517082,72.7639043 L62.9845574,75.562516 L52.8852195,58.1624519 L49.174017,60.2614107 L51.7292712,50.6792076 Z" id="Shape"></path>
            </g>
        </g>
    </g>
</svg>