<?xml version="1.0" encoding="UTF-8" standalone="no"?>
<svg width="102px" height="102px" viewBox="0 0 102 102" version="1.1" xmlns="http://www.w3.org/2000/svg" xmlns:xlink="http://www.w3.org/1999/xlink">
    <!-- Generator: Sketch 45.2 (43514) - http://www.bohemiancoding.com/sketch -->
    <title>noun_851993_cc</title>
    <desc>Created with Sketch.</desc>
    <defs></defs>
    <g id="Page-1" stroke="none" stroke-width="1" fill="none" fill-rule="evenodd">
        <g id="Artboard" transform="translate(-473.000000, -677.000000)" fill-rule="nonzero" fill="#000000">
            <g id="noun_851993_cc" transform="translate(473.000000, 677.000000)">
                <g id="Group" transform="translate(0.000000, 0.000000)">
                    <path d="M73.2528981,29.3967585 C61.0639983,17.2078586 41.3466603,17.2078586 29.1577604,29.3967585 C16.9688606,41.5856583 16.9688606,61.3029963 29.1577604,73.4918961 C35.2522103,79.5863461 43.2586446,82.5738215 51.1455798,82.5738215 C59.152014,82.5738215 67.1584482,79.5863461 73.1333991,73.4918961 C85.441798,61.3029963 85.441798,41.4661593 73.2528981,29.3967585 Z M69.3094305,69.4289295 C59.391012,79.347348 43.2586446,79.347348 33.220727,69.4289295 C28.4407663,64.6489688 25.8117879,58.1960218 25.8117879,51.3845778 C25.8117879,44.5731338 28.4407663,38.2396858 33.220727,33.3402261 C38.2396858,28.3212673 44.6926328,25.9312869 51.2650788,25.9312869 C57.8375248,25.9312869 64.2904717,28.4407663 69.3094305,33.3402261 C79.227849,43.3781436 79.227849,59.510511 69.3094305,69.4289295 Z" id="Shape"></path>
                    <path d="M51.2650788,14.5788802 C52.1015719,14.5788802 52.699067,13.9813851 52.699067,13.144892 L52.699067,2.38998036 C52.699067,1.55348724 52.1015719,0.955992145 51.2650788,0.955992145 C50.4285856,0.955992145 49.8310906,1.55348724 49.8310906,2.38998036 L49.8310906,13.144892 C49.8310906,13.8618861 50.4285856,14.5788802 51.2650788,14.5788802 Z" id="Shape"></path>
                    <path d="M23.1828095,25.3337918 C23.4218076,25.5727899 23.7803046,25.6922889 24.1388017,25.6922889 C24.4972987,25.6922889 24.8557958,25.5727899 25.0947938,25.3337918 C25.3337918,25.0947938 25.4532909,24.7362967 25.4532909,24.3777997 C25.4532909,24.0193026 25.3337918,23.6608056 25.0947938,23.4218076 L17.4468566,15.7738704 C16.8493616,15.1763753 16.0128684,15.1763753 15.4153733,15.7738704 C15.1763753,16.0128684 15.0568763,16.3713655 15.0568763,16.7298625 C15.0568763,17.0883596 15.1763753,17.4468566 15.4153733,17.6858547 L23.1828095,25.3337918 Z" id="Shape"></path>
                    <path d="M13.025393,49.9505896 L2.27048134,49.9505896 C1.43398822,49.9505896 0.836493127,50.5480847 0.836493127,51.3845778 C0.836493127,52.2210709 1.43398822,52.818566 2.27048134,52.818566 L13.025393,52.818566 C13.8618861,52.818566 14.4593812,52.2210709 14.4593812,51.3845778 C14.4593812,50.5480847 13.7423871,49.9505896 13.025393,49.9505896 Z" id="Shape"></path>
                    <path d="M23.1828095,77.4353637 L15.5348724,85.0833009 C14.9373773,85.680796 14.9373773,86.5172891 15.5348724,87.1147842 C15.7738704,87.3537822 16.1323674,87.4732813 16.4908645,87.4732813 C16.8493616,87.4732813 17.2078586,87.3537822 17.4468566,87.1147842 L25.0947938,79.466847 C25.6922889,78.869352 25.6922889,78.0328588 25.0947938,77.4353637 C24.6167977,76.8378686 23.7803046,76.8378686 23.1828095,77.4353637 Z" id="Shape"></path>
                    <path d="M51.2650788,88.1902754 C50.4285856,88.1902754 49.8310906,88.7877705 49.8310906,89.6242636 L49.8310906,100.379175 C49.8310906,101.215668 50.4285856,101.813163 51.2650788,101.813163 C52.1015719,101.813163 52.699067,101.215668 52.699067,100.379175 L52.699067,89.6242636 C52.699067,88.9072695 51.9820729,88.1902754 51.2650788,88.1902754 Z" id="Shape"></path>
                    <path d="M79.347348,77.4353637 C78.7498529,76.8378686 77.9133598,76.8378686 77.3158647,77.4353637 C77.0768667,77.6743618 76.9573677,78.0328588 76.9573677,78.3913559 C76.9573677,78.7498529 77.0768667,79.10835 77.3158647,79.347348 L84.9638019,86.9952852 C85.2027999,87.2342832 85.561297,87.3537822 85.919794,87.3537822 C86.2782911,87.3537822 86.6367881,87.2342832 86.8757862,86.9952852 C87.1147842,86.7562872 87.2342832,86.3977901 87.2342832,86.039293 C87.2342832,85.680796 87.1147842,85.3222989 86.8757862,85.0833009 L79.347348,77.4353637 Z" id="Shape"></path>
                    <path d="M100.259676,49.9505896 L89.5047646,49.9505896 C88.6682714,49.9505896 88.0707763,50.5480847 88.0707763,51.3845778 C88.0707763,52.2210709 88.6682714,52.818566 89.5047646,52.818566 L100.259676,52.818566 C101.096169,52.818566 101.693664,52.2210709 101.693664,51.3845778 C101.693664,50.5480847 101.096169,49.9505896 100.259676,49.9505896 Z" id="Shape"></path>
                    <path d="M78.2718569,25.8117879 C78.6303539,25.8117879 78.988851,25.6922889 79.227849,25.4532909 L86.8757862,17.8053537 C87.1147842,17.5663557 87.2342832,17.2078586 87.2342832,16.8493616 C87.2342832,16.4908645 87.1147842,16.1323674 86.8757862,15.8933694 C86.2782911,15.2958743 85.441798,15.2958743 84.8443029,15.8933694 L77.1963657,23.5413066 C76.9573677,23.7803046 76.8378686,24.1388017 76.8378686,24.4972987 C76.8378686,24.8557958 76.9573677,25.2142928 77.1963657,25.4532909 C77.5548628,25.5727899 77.9133598,25.8117879 78.2718569,25.8117879 Z" id="Shape"></path>
                    <path d="M34.2962182,13.025393 C34.4157172,13.264391 34.6547153,13.503389 34.8937133,13.503389 C35.0132123,13.503389 35.1327113,13.503389 35.1327113,13.503389 C35.4912084,13.38389 35.6107074,12.905894 35.4912084,12.5473969 L34.4157172,9.9184185 C34.2962182,9.55992145 33.8182221,9.44042243 33.4597251,9.55992145 C33.101228,9.67942047 32.981729,10.1574165 33.101228,10.5159136 L34.2962182,13.025393 Z" id="Shape"></path>
                    <path d="M35.7302064,16.3713655 L36.8056976,19.0003439 C36.9251966,19.2393419 37.1641946,19.47834 37.4031927,19.47834 C37.5226917,19.47834 37.6421907,19.47834 37.6421907,19.47834 C38.0006878,19.3588409 38.1201868,18.8808449 38.0006878,18.5223478 L37.0446956,15.7738704 C36.9251966,15.4153733 36.4472005,15.2958743 36.0887035,15.4153733 C35.7302064,15.5348724 35.4912084,16.0128684 35.7302064,16.3713655 Z" id="Shape"></path>
                    <path d="M9.55992145,35.2522103 L12.1888998,36.3277015 C12.3083989,36.3277015 12.3083989,36.3277015 12.4278979,36.3277015 C12.6668959,36.3277015 13.025393,36.2082025 13.144892,35.8497054 C13.264391,35.4912084 13.144892,35.1327113 12.7863949,34.8937133 L10.1574165,33.8182221 C9.79891949,33.6987231 9.32092341,33.8182221 9.20142439,34.1767192 C8.96242636,34.6547153 9.20142439,35.0132123 9.55992145,35.2522103 Z" id="Shape"></path>
                    <path d="M15.4153733,37.6421907 L18.0443517,38.7176819 C18.1638508,38.7176819 18.1638508,38.7176819 18.2833498,38.7176819 C18.5223478,38.7176819 18.8808449,38.5981829 19.0003439,38.2396858 C19.1198429,37.8811887 19.0003439,37.5226917 18.6418468,37.2836937 L16.0128684,36.2082025 C15.6543714,36.0887035 15.2958743,36.2082025 15.0568763,36.5666995 C14.9373773,37.0446956 15.0568763,37.4031927 15.4153733,37.6421907 Z" id="Shape"></path>
                    <path d="M18.2833498,64.5294698 L15.6543714,65.6049609 C15.2958743,65.72446 15.1763753,66.202456 15.2958743,66.5609531 C15.4153733,66.7999511 15.6543714,67.0389492 15.8933694,67.0389492 C16.0128684,67.0389492 16.1323674,67.0389492 16.1323674,67.0389492 L18.7613458,65.963458 C19.1198429,65.843959 19.2393419,65.3659629 19.1198429,65.0074659 C19.0003439,64.5294698 18.6418468,64.4099708 18.2833498,64.5294698 Z" id="Shape"></path>
                    <path d="M12.4278979,67.0389492 L9.79891949,68.1144403 C9.44042243,68.2339393 9.32092341,68.7119354 9.44042243,69.0704325 C9.55992145,69.3094305 9.79891949,69.5484285 10.0379175,69.5484285 C10.1574165,69.5484285 10.2769156,69.5484285 10.2769156,69.5484285 L12.905894,68.4729374 C13.264391,68.3534384 13.38389,67.8754423 13.264391,67.5169452 C13.144892,67.0389492 12.7863949,66.9194501 12.4278979,67.0389492 Z" id="Shape"></path>
                    <path d="M38.1201868,83.6493127 C37.7616897,83.5298137 37.2836937,83.6493127 37.1641946,84.0078097 L36.0887035,86.6367881 C35.9692045,86.9952852 36.0887035,87.4732813 36.4472005,87.5927803 C36.5666995,87.5927803 36.5666995,87.5927803 36.6861986,87.5927803 C36.9251966,87.5927803 37.2836937,87.4732813 37.4031927,87.1147842 L38.4786838,84.4858058 C38.7176819,84.2468078 38.4786838,83.7688117 38.1201868,83.6493127 Z" id="Shape"></path>
                    <path d="M35.7302064,89.6242636 C35.3717094,89.5047646 34.8937133,89.6242636 34.7742143,89.9827606 L33.6987231,92.611739 C33.5792241,92.9702361 33.6987231,93.4482322 34.0572202,93.5677312 C34.1767192,93.5677312 34.1767192,93.5677312 34.2962182,93.5677312 C34.5352162,93.5677312 34.8937133,93.4482322 35.0132123,93.0897351 L36.0887035,90.4607567 C36.3277015,90.1022597 36.0887035,89.7437626 35.7302064,89.6242636 Z" id="Shape"></path>
                    <path d="M66.7999511,86.3977901 L65.72446,83.7688117 C65.6049609,83.4103146 65.1269649,83.2908156 64.7684678,83.4103146 C64.4099708,83.5298137 64.2904717,84.0078097 64.4099708,84.3663068 L65.4854619,86.9952852 C65.6049609,87.2342832 65.843959,87.4732813 66.082957,87.4732813 C66.202456,87.4732813 66.3219551,87.4732813 66.3219551,87.4732813 C66.7999511,87.2342832 67.0389492,86.7562872 66.7999511,86.3977901 Z" id="Shape"></path>
                    <path d="M68.2339393,89.7437626 C68.1144403,89.3852655 67.6364443,89.2657665 67.2779472,89.3852655 C66.9194501,89.5047646 66.7999511,89.9827606 66.9194501,90.3412577 L67.9949413,92.9702361 C68.1144403,93.2092341 68.3534384,93.4482322 68.5924364,93.4482322 C68.7119354,93.4482322 68.8314344,93.4482322 68.8314344,93.4482322 C69.1899315,93.3287331 69.3094305,92.8507371 69.1899315,92.49224 L68.2339393,89.7437626 Z" id="Shape"></path>
                    <path d="M92.9702361,67.5169452 L90.3412577,66.4414541 C89.9827606,66.3219551 89.6242636,66.4414541 89.3852655,66.7999511 C89.2657665,67.1584482 89.3852655,67.5169452 89.7437626,67.7559433 L92.372741,68.8314344 C92.49224,68.8314344 92.49224,68.8314344 92.611739,68.8314344 C92.8507371,68.8314344 93.2092341,68.7119354 93.3287331,68.3534384 C93.5677312,68.1144403 93.3287331,67.7559433 92.9702361,67.5169452 Z" id="Shape"></path>
                    <path d="M87.1147842,65.1269649 L84.4858058,64.0514737 C84.1273088,63.9319747 83.6493127,64.0514737 83.5298137,64.4099708 C83.4103146,64.7684678 83.5298137,65.1269649 83.8883107,65.3659629 L86.5172891,66.4414541 C86.6367881,66.4414541 86.6367881,66.4414541 86.7562872,66.4414541 C86.9952852,66.4414541 87.3537822,66.3219551 87.4732813,65.963458 C87.5927803,65.72446 87.4732813,65.2464639 87.1147842,65.1269649 Z" id="Shape"></path>
                    <path d="M86.2782911,35.8497054 L83.6493127,36.9251966 C83.2908156,37.0446956 83.1713166,37.5226917 83.2908156,37.8811887 C83.4103146,38.1201868 83.6493127,38.3591848 83.8883107,38.3591848 C84.0078097,38.3591848 84.1273088,38.3591848 84.1273088,38.3591848 L86.7562872,37.2836937 C87.1147842,37.1641946 87.2342832,36.6861986 87.1147842,36.3277015 C87.1147842,35.8497054 86.6367881,35.6107074 86.2782911,35.8497054 Z" id="Shape"></path>
                    <path d="M89.8632616,35.7302064 C89.9827606,35.7302064 90.1022597,35.7302064 90.1022597,35.7302064 L92.7312381,34.6547153 C93.0897351,34.5352162 93.2092341,34.0572202 93.0897351,33.6987231 C92.9702361,33.3402261 92.49224,33.220727 92.133743,33.3402261 L89.6242636,34.4157172 C89.2657665,34.5352162 89.1462675,35.0132123 89.2657665,35.3717094 C89.3852655,35.6107074 89.6242636,35.7302064 89.8632616,35.7302064 Z" id="Shape"></path>
                    <path d="M66.7999511,13.264391 C66.9194501,13.264391 66.9194501,13.264391 67.0389492,13.264391 C67.2779472,13.264391 67.6364443,13.144892 67.7559433,12.7863949 L68.8314344,10.1574165 C68.9509335,9.79891949 68.8314344,9.32092341 68.4729374,9.20142439 C68.1144403,9.08192538 67.6364443,9.20142439 67.5169452,9.55992145 L66.4414541,12.1888998 C66.202456,12.6668959 66.4414541,13.025393 66.7999511,13.264391 Z" id="Shape"></path>
                    <path d="M64.4099708,19.1198429 C64.5294698,19.1198429 64.5294698,19.1198429 64.6489688,19.1198429 C64.8879668,19.1198429 65.2464639,19.0003439 65.3659629,18.6418468 L66.4414541,16.0128684 C66.5609531,15.6543714 66.4414541,15.1763753 66.082957,15.0568763 C65.72446,14.9373773 65.3659629,15.0568763 65.1269649,15.4153733 L64.0514737,18.0443517 C63.8124757,18.5223478 64.0514737,19.0003439 64.4099708,19.1198429 Z" id="Shape"></path>
                    <path d="M68.7119354,47.2021122 C67.1584482,47.2021122 65.843959,48.5166014 65.843959,50.0700886 C65.843959,51.0260807 65.72446,51.9820729 65.6049609,52.938065 C65.3659629,54.4915523 66.3219551,55.9255405 67.8754423,56.2840375 C67.9949413,56.2840375 68.2339393,56.2840375 68.3534384,56.2840375 C69.6679276,56.2840375 70.8629177,55.3280454 71.1019158,54.0135562 C71.3409138,52.699067 71.4604128,51.3845778 71.4604128,50.0700886 C71.5799119,48.3971023 70.2654227,47.2021122 68.7119354,47.2021122 Z" id="Shape"></path>
                    <path d="M66.5609531,59.152014 C65.3659629,58.1960218 63.5734776,58.4350199 62.6174855,59.63001 C62.2589884,60.1080061 61.9004914,60.4665032 61.5419943,60.9444992 C58.5545189,64.1709727 54.4915523,65.843959 50.0700886,65.843959 C48.5166014,65.843959 47.2021122,67.1584482 47.2021122,68.7119354 C47.2021122,70.2654227 48.5166014,71.5799119 50.0700886,71.5799119 C56.0450395,71.5799119 61.5419943,69.1899315 65.6049609,64.8879668 C66.082957,64.2904717 66.5609531,63.8124757 67.0389492,63.2149806 C67.9949413,61.9004914 67.7559433,60.1080061 66.5609531,59.152014 Z" id="Shape"></path>
                </g>
            </g>
        </g>
    </g>
</svg>