<?xml version="1.0" encoding="UTF-8" standalone="no"?>
<svg width="96px" height="56px" viewBox="0 0 96 56" version="1.1" xmlns="http://www.w3.org/2000/svg" xmlns:xlink="http://www.w3.org/1999/xlink">
    <!-- Generator: Sketch 45.2 (43514) - http://www.bohemiancoding.com/sketch -->
    <title>noun_1174140_cc</title>
    <desc>Created with Sketch.</desc>
    <defs></defs>
    <g id="Page-1" stroke="none" stroke-width="1" fill="none" fill-rule="evenodd">
        <g id="Artboard" transform="translate(-632.000000, -507.000000)" fill-rule="nonzero" fill="#1D1D1B">
            <g id="noun_1174140_cc" transform="translate(632.000000, 507.000000)">
                <path d="M95.4,39.4 C95,38.3 94,37.5 92.9,37.5 C91.4,37.4 90,37.2 88.5,36.7 C79.3,33.8 74.2,23.9 77.1,14.7 C78.3,11.1 80.5,8 83.5,5.8 C84.4,5.1 84.9,3.9 84.6,2.8 C84.3,1.7 83.4,0.8 82.2,0.7 C70.7,-0.8 59.9,6.1 56.4,17.1 C56.3,17.4 56.2,17.8 56.1,18.1 C52.4,13.2 46.5,10.1 40.1,10.1 C33.3,10.1 26.9,13.6 23.2,19.3 C17.8,19.9 13.2,23.6 11.5,28.7 C5.2,29.9 0.4,35.4 0.4,42.1 C0.4,49.6 6.5,55.7 14,55.7 L53.1,55.7 C60,55.7 65.9,51.6 68.6,45.8 C69.6,46.3 70.7,46.7 71.8,47.1 C74.2,47.9 76.6,48.2 79.1,48.2 C84.6,48.2 90.1,46.3 94.5,42.5 C95.4,41.7 95.7,40.5 95.4,39.4 Z M53.2,51.4 L14.1,51.4 C8.9,51.4 4.7,47.2 4.7,42 C4.7,36.8 8.9,32.6 14.1,32.6 C14.4,32.6 14.7,32.6 15.1,32.6 C15.3,27.4 19.6,23.3 24.8,23.3 C25.1,23.3 25.4,23.3 25.7,23.3 C28.2,17.9 33.7,14.1 40.1,14.1 C47.4,14.1 53.6,19.1 55.4,25.8 C61.4,26.9 66,32.1 66,38.4 C66,45.6 60.3,51.4 53.2,51.4 Z M73.2,42.9 C72.1,42.5 71,42.1 70,41.6 C70.2,40.6 70.3,39.6 70.3,38.6 C70.3,31.5 66,25.3 59.6,22.8 C59.7,21.3 60,19.8 60.5,18.3 C63,10.3 70.3,4.9 78.4,4.6 C76,7 74.2,10 73.1,13.3 C69.5,24.7 75.8,37 87.2,40.6 C87.8,40.8 88.4,41 89.1,41.1 C84.3,44 78.5,44.6 73.2,42.9 Z" id="Shape"></path>
            </g>
        </g>
    </g>
</svg>