<?xml version="1.0" encoding="UTF-8" standalone="no"?>
<svg width="78px" height="50px" viewBox="0 0 78 50" version="1.1" xmlns="http://www.w3.org/2000/svg" xmlns:xlink="http://www.w3.org/1999/xlink">
    <!-- Generator: Sketch 45.2 (43514) - http://www.bohemiancoding.com/sketch -->
    <title>noun_1174139_cc</title>
    <desc>Created with Sketch.</desc>
    <defs></defs>
    <g id="Page-1" stroke="none" stroke-width="1" fill="none" fill-rule="evenodd">
        <g id="Artboard" transform="translate(-787.000000, -507.000000)" fill-rule="nonzero" fill="#000000">
            <g id="noun_1174139_cc" transform="translate(787.000000, 507.000000)">
                <path d="M60.2,49.6 L13.7,49.6 C6.2,49.6 0,43.5 0,35.9 C0,28.7 5.6,22.8 12.6,22.2 C14,16 19.4,11.3 26,11.2 C29.8,4.6 36.9,0.3 44.6,0.3 C53.7,0.3 61.8,6.1 64.8,14.6 C72.5,16.7 78,23.6 78,31.8 C78,41.6 70,49.6 60.2,49.6 Z M13.7,27.3 C8.9,27.3 5,31.2 5,36 C5,40.8 8.9,44.7 13.7,44.7 L60.2,44.7 C67.2,44.7 73,39 73,31.9 C73,25.7 68.6,20.4 62.4,19.3 C61.4,19.1 60.7,18.4 60.4,17.5 C58.5,10.4 52,5.4 44.6,5.4 C38.3,5.4 32.4,9.1 29.7,14.9 C29.3,15.9 28.2,16.4 27.2,16.3 C26.9,16.3 26.6,16.3 26.3,16.3 C21.4,16.3 17.5,20.1 17.2,25 C17.2,25.7 16.9,26.3 16.3,26.8 C15.8,27.3 15.1,27.5 14.4,27.4 C14.3,27.3 14,27.3 13.7,27.3 Z" id="Shape"></path>
            </g>
        </g>
    </g>
</svg>