<?xml version="1.0" encoding="UTF-8" standalone="no"?>
<svg width="77px" height="90px" viewBox="0 0 77 90" version="1.1" xmlns="http://www.w3.org/2000/svg" xmlns:xlink="http://www.w3.org/1999/xlink">
    <!-- Generator: Sketch 45.2 (43514) - http://www.bohemiancoding.com/sketch -->
    <title>noun_1174143_cc</title>
    <desc>Created with Sketch.</desc>
    <defs></defs>
    <g id="Page-1" stroke="none" stroke-width="1" fill="none" fill-rule="evenodd">
        <g id="Artboard" transform="translate(-210.000000, -508.000000)" fill-rule="nonzero" fill="#000000">
            <g id="noun_1174143_cc" transform="translate(210.000000, 507.000000)">
                <path d="M46,91 C41.6,91 37.3,90.4 32.9,89.1 C9.1,81.9 -4.4,56.8 2.8,33 C9.1,12.1 29.4,-1.3 51.1,1.3 C53,1.5 54.5,2.9 55,4.7 C55.5,6.6 54.8,8.5 53.3,9.7 C47.4,14.1 43.1,20.2 40.9,27.4 C35.4,45.6 45.8,64.8 63.9,70.3 C66.7,71.1 69.6,71.6 72.5,71.7 L72.5,71.7 C74.4,71.8 76.1,73 76.7,74.8 C77.3,76.6 76.8,78.6 75.4,79.8 C67.2,87.2 56.7,91 46,91 Z M45.7,7.5 C29,7.5 14,18.5 9,34.9 C2.9,55.2 14.4,76.7 34.7,82.8 C46,86.2 57.9,84.3 67.4,77.8 C65.6,77.5 63.7,77.1 62,76.6 C40.4,70.1 28.1,47.2 34.6,25.5 C36.8,18.6 40.6,12.4 45.7,7.5 Z" id="Shape"></path>
            </g>
        </g>
    </g>
</svg>