<?xml version="1.0" encoding="UTF-8" standalone="no"?>
<svg width="96px" height="66px" viewBox="0 0 96 66" version="1.1" xmlns="http://www.w3.org/2000/svg" xmlns:xlink="http://www.w3.org/1999/xlink">
    <!-- Generator: Sketch 45.2 (43514) - http://www.bohemiancoding.com/sketch -->
    <title>noun_1174150_cc</title>
    <desc>Created with Sketch.</desc>
    <defs></defs>
    <g id="Page-1" stroke="none" stroke-width="1" fill="none" fill-rule="evenodd">
        <g id="Artboard" transform="translate(-191.000000, -394.000000)" fill-rule="nonzero" fill="#000000">
            <g id="noun_1174150_cc" transform="translate(191.000000, 394.000000)">
                <g id="Group">
                    <path d="M33.7,12.6 C35,12.6 36,11.6 36,10.3 L36,2.9 C36,1.6 35,0.6 33.7,0.6 C32.4,0.6 31.4,1.6 31.4,2.9 L31.4,10.3 C31.5,11.6 32.5,12.6 33.7,12.6 Z" id="Shape"></path>
                    <path d="M15.5,18.8 C15.9,19.2 16.5,19.5 17.1,19.5 C17.7,19.5 18.3,19.3 18.7,18.8 C19.6,17.9 19.6,16.5 18.7,15.6 L13.4,10.3 C12.5,9.4 11.1,9.4 10.2,10.3 C9.3,11.2 9.3,12.6 10.2,13.5 L15.5,18.8 Z" id="Shape"></path>
                    <path d="M12.5,33.9 C12.5,32.6 11.5,31.6 10.2,31.6 L2.8,31.6 C1.5,31.6 0.5,32.6 0.5,33.9 C0.5,35.2 1.5,36.2 2.8,36.2 L10.2,36.2 C11.5,36.1 12.5,35.1 12.5,33.9 Z" id="Shape"></path>
                    <path d="M15.5,48.9 L10.2,54.2 C9.3,55.1 9.3,56.5 10.2,57.4 C10.6,57.8 11.2,58.1 11.8,58.1 C12.4,58.1 13,57.9 13.4,57.4 L18.7,52.1 C19.6,51.2 19.6,49.8 18.7,48.9 C17.8,48 16.4,48 15.5,48.9 Z" id="Shape"></path>
                    <path d="M50.4,19.5 C51,19.5 51.6,19.3 52,18.8 L57.3,13.5 C58.2,12.6 58.2,11.2 57.3,10.3 C56.4,9.4 55,9.4 54.1,10.3 L48.8,15.6 C47.9,16.5 47.9,17.9 48.8,18.8 C49.2,19.3 49.8,19.5 50.4,19.5 Z" id="Shape"></path>
                    <path d="M83.5,33.7 C80.8,26 73.4,20.7 65.2,20.7 C59.4,20.7 53.9,23.4 50.3,27.7 C47.8,21 41.4,16.2 33.8,16.2 C24.1,16.2 16.2,24.1 16.2,33.8 C16.2,40.4 19.9,46.2 25.3,49.2 C24.9,50.4 24.7,51.6 24.7,52.9 C24.7,59.8 30.3,65.3 37.1,65.3 L79.4,65.3 C88.3,65.3 95.5,58.1 95.5,49.2 C95.5,41.9 90.5,35.5 83.5,33.7 Z M27.4,45.2 C23.4,43 20.7,38.7 20.7,33.8 C20.7,26.6 26.6,20.7 33.8,20.7 C39.9,20.7 45.1,24.9 46.5,30.7 C41.4,31.6 37.3,35.5 36.2,40.5 C32.6,40.8 29.4,42.6 27.4,45.2 Z M79.4,60.8 L37.1,60.8 C32.8,60.8 29.2,57.3 29.2,52.9 C29.2,48.6 32.7,45 37.1,45 C37.4,45 37.6,45 37.9,45 C38.5,45.1 39.1,44.9 39.6,44.5 C40.1,44.1 40.4,43.5 40.4,42.9 C40.6,38.5 44.2,35 48.6,35 C48.9,35 49.1,35 49.4,35 C50.4,35.1 51.3,34.6 51.7,33.7 C54.1,28.5 59.4,25.1 65.2,25.1 C71.9,25.1 77.8,29.6 79.6,36.1 C79.8,37 80.5,37.6 81.4,37.7 C87,38.7 91,43.5 91,49.1 C90.9,55.6 85.7,60.8 79.4,60.8 Z" id="Shape"></path>
                </g>
            </g>
        </g>
    </g>
</svg>