<?xml version="1.0" encoding="UTF-8" standalone="no"?>
<svg width="46px" height="96px" viewBox="0 0 46 96" version="1.1" xmlns="http://www.w3.org/2000/svg" xmlns:xlink="http://www.w3.org/1999/xlink">
    <!-- Generator: Sketch 45.2 (43514) - http://www.bohemiancoding.com/sketch -->
    <title>noun_980873_cc</title>
    <desc>Created with Sketch.</desc>
    <defs></defs>
    <g id="Page-1" stroke="none" stroke-width="1" fill="none" fill-rule="evenodd">
        <g id="Artboard" transform="translate(-941.000000, -507.000000)" fill-rule="nonzero" fill="#000000">
            <g id="noun_980873_cc" transform="translate(941.000000, 507.000000)">
                <g id="Group">
                    <path d="M26.1,67.1 L26.1,10.4 C26.1,4.9 21.6,0.4 16.1,0.4 C10.6,0.4 6.1,4.9 6.1,10.4 L6.1,67.1 C2.4,70.1 0.1,74.7 0.1,79.5 C0.1,88.3 7.3,95.5 16.1,95.5 C24.9,95.5 32,88.3 32,79.5 C32,74.7 29.8,70.1 26.1,67.1 Z M16.1,92.1 C9.2,92.1 3.6,86.5 3.6,79.6 C3.6,75.2 5.9,71.2 9.6,68.9 L9.6,10.5 C9.6,6.9 12.5,3.9 16.2,3.9 C19.8,3.9 22.8,6.8 22.8,10.5 L22.8,68.9 C26.4,71.2 28.8,75.2 28.8,79.6 C28.6,86.5 23,92.1 16.1,92.1 Z" id="Shape"></path>
                    <path d="M19.2,71 L19.2,10.5 C19.2,8.8 17.8,7.4 16.1,7.4 C14.4,7.4 13,8.8 13,10.5 L13,71 C9.5,72.3 7,75.6 7,79.5 C7,84.5 11.1,88.6 16.1,88.6 C21.1,88.6 25.2,84.5 25.2,79.5 C25.2,75.6 22.7,72.3 19.2,71 Z" id="Shape"></path>
                    <rect id="Rectangle-path" x="29.6" y="10.6" width="16.3" height="3.4"></rect>
                    <rect id="Rectangle-path" x="29.6" y="21.9" width="7.7" height="3.4"></rect>
                    <rect id="Rectangle-path" x="29.6" y="33.3" width="16.3" height="3.4"></rect>
                    <rect id="Rectangle-path" x="29.6" y="44.6" width="7.7" height="3.4"></rect>
                    <rect id="Rectangle-path" x="29.6" y="55.9" width="16.3" height="3.4"></rect>
                </g>
            </g>
        </g>
    </g>
</svg>